<svg xmlns="http://www.w3.org/2000/svg" width="50" height="50" viewBox="0 0 50 50">
  <path id="instagram_musta_nelio" d="M25.12,20.19a4.72,4.72,0,1,0,4.72,4.72,4.72,4.72,0,0,0-4.72-4.72Zm0,0a4.72,4.72,0,1,0,4.72,4.72,4.72,4.72,0,0,0-4.72-4.72ZM0,0V50H50V0ZM39.95,30.88a8.992,8.992,0,0,1-8.98,8.98H19.03a8.992,8.992,0,0,1-8.98-8.98V18.94a8.992,8.992,0,0,1,8.98-8.98H30.97a8.992,8.992,0,0,1,8.98,8.98V30.88ZM30.97,12.77H19.03a6.18,6.18,0,0,0-6.17,6.17V30.88a6.18,6.18,0,0,0,6.17,6.17H30.97a6.18,6.18,0,0,0,6.17-6.17V18.94a6.18,6.18,0,0,0-6.17-6.17Zm-5.85,19.5a7.36,7.36,0,1,1,7.37-7.36,7.366,7.366,0,0,1-7.37,7.36Zm7.8-13.46a1.755,1.755,0,1,1,1.75-1.76A1.763,1.763,0,0,1,32.92,18.81Zm-7.8,1.38a4.72,4.72,0,1,0,4.72,4.72A4.72,4.72,0,0,0,25.12,20.19Z" fill="#07053d"/>
</svg>
