<svg id="Group_100" data-name="Group 100" xmlns="http://www.w3.org/2000/svg" xmlns:xlink="http://www.w3.org/1999/xlink" width="29.9" height="29.9" viewBox="0 0 29.9 29.9">
  <defs>
    <clipPath id="clip-path">
      <rect id="Rectangle_97" data-name="Rectangle 97" width="29.9" height="29.9" transform="translate(0 0)" fill="none"/>
    </clipPath>
  </defs>
  <g id="Group_99" data-name="Group 99" clip-path="url(#clip-path)">
    <path id="Path_17" data-name="Path 17" d="M22.86,5.34a1.755,1.755,0,1,0,1.76,1.75,1.754,1.754,0,0,0-1.76-1.75M15.09,7.59a7.36,7.36,0,1,0,7.35,7.36,7.36,7.36,0,0,0-7.35-7.36m-.02,12.08a4.723,4.723,0,1,1,4.72-4.72,4.722,4.722,0,0,1-4.72,4.72M22.86,5.34a1.755,1.755,0,1,0,1.76,1.75,1.754,1.754,0,0,0-1.76-1.75M15.09,7.59a7.36,7.36,0,1,0,7.35,7.36,7.36,7.36,0,0,0-7.35-7.36m-.02,12.08a4.723,4.723,0,1,1,4.72-4.72,4.722,4.722,0,0,1-4.72,4.72M20.92,0H8.98A9,9,0,0,0,0,8.98V20.92A9,9,0,0,0,8.98,29.9H20.92a8.986,8.986,0,0,0,8.98-8.98V8.98A8.986,8.986,0,0,0,20.92,0m6.17,20.92a6.18,6.18,0,0,1-6.17,6.17H8.98a6.193,6.193,0,0,1-6.17-6.17V8.98A6.18,6.18,0,0,1,8.98,2.81H20.92a6.167,6.167,0,0,1,6.17,6.17ZM22.86,5.34a1.755,1.755,0,1,0,1.76,1.75,1.754,1.754,0,0,0-1.76-1.75M15.09,7.59a7.36,7.36,0,1,0,7.35,7.36,7.36,7.36,0,0,0-7.35-7.36m-.02,12.08a4.723,4.723,0,1,1,4.72-4.72,4.722,4.722,0,0,1-4.72,4.72" fill="#11142a"/>
  </g>
</svg>
