<svg id="linkedin_musta_nelio" xmlns="http://www.w3.org/2000/svg" width="50" height="50" viewBox="0 0 50 50">
  <path id="Path_14" data-name="Path 14" d="M26.44,23.1v.05h-.03A.321.321,0,0,1,26.44,23.1Z" fill="#07053d"/>
  <g id="Group_98" data-name="Group 98">
    <path id="Path_15" data-name="Path 15" d="M0,0V50H50V0ZM17.47,38.1H11.55V20.3h5.92ZM14.51,17.87h-.04A3.056,3.056,0,0,1,11.2,14.8a3.11,3.11,0,0,1,3.35-3.08,3.085,3.085,0,1,1-.04,6.15ZM38.8,38.1H32.88V28.58c0-2.39-.85-4.03-2.99-4.03a3.237,3.237,0,0,0-3.04,2.17,3.931,3.931,0,0,0-.19,1.44V38.1H20.74s.08-16.13,0-17.8h5.92v2.52a5.867,5.867,0,0,1,5.33-2.94c3.89,0,6.81,2.55,6.81,8.01ZM26.66,22.88v-.06a.592.592,0,0,0-.04.06Zm-.22.27V23.1s-.02.03-.03.05Z" fill="#07053d"/>
    <path id="Path_16" data-name="Path 16" d="M26.41,23.15h.03V23.1S26.42,23.13,26.41,23.15Z" fill="#07053d"/>
  </g>
</svg>
